<svg version="1" xmlns="http://www.w3.org/2000/svg" width="682.667" height="682.667" viewBox="0 0 512.000000 512.000000"><path d="M252.2 58.5c-2.9.8-6.5 2.1-8 2.9-4.6 2.4-11.3 9.5-13.5 14.4-2.1 4.6-2.2 5.9-2.2 43.2 0 34.4.2 38.9 1.7 42.3 3.6 7.9 7.3 11.3 18.2 16.6 12.9 6.3 16.6 10.1 16.6 16.9 0 5-2.8 10.1-10.8 19.9-1.9 2.4-2.9 4.3-2.3 4.3 2.2 0 14.4-6 21-10.4 8.9-5.9 15.5-13.1 19.1-20.9l3-6.2 75.2-.5 75.3-.5 4.9-2.3c7.6-3.5 13.1-8.6 16.3-15l2.8-5.7V119c0-37.5-.1-38.6-2.2-43.2-3-6.5-10.1-13.2-17.1-16l-5.7-2.3-93.5-.2c-78.4-.2-94.3 0-98.8 1.2zm189 11.5c2.1.6 5.1 2.2 6.8 3.7 6 5 6 4.7 6 45.3 0 40.6 0 40.3-6 45.3-1.7 1.5-4.7 3.1-6.8 3.7-2.4.6-34.3 1-91.9 1-86.6 0-88.3 0-93.7-2.1-5.8-2.1-10.1-6.2-11.4-10.7-.9-3.5-.9-70.9 0-74.4 1.2-4 5.7-8.9 10.3-10.9 3.8-1.8 8.8-1.9 93.5-1.9 58.5 0 90.8.4 93.2 1zM140 241.6c-4.2.5-18.8 3.1-25 4.3-6.8 1.5-21.8 6.6-29.6 10.2-32.6 15.1-53.3 39.7-52.2 62l.3 6.4h255l.3-6.5c1.1-22-19.3-46.6-50.6-61.2-9.3-4.3-24-9.3-31.7-10.9-18.1-3.8-21.1-4.1-41.5-4.4-11.8-.2-23.1-.1-25 .1zm53 10.8c31.7 6 54.3 16.3 70.2 32 9.7 9.5 16.6 22.7 15.9 30.3-.1 1-24.4 1.3-118.1 1.3H43v-3.5c0-7.1 8.7-21.6 18.3-30.7 4.2-3.8 18.2-13.1 23.8-15.6 4.1-1.8 12.7-5.4 17.4-7.2 8.9-3.4 28.3-7.4 40.5-8.4 9.3-.8 42.8.4 50 1.8z"/><path d="M170.8 259.7c-2.1.5-3.3 4.3-2.3 7.2 1.5 4.9 9.5 3.1 9.5-2.2 0-1.7-.8-3.6-1.7-4.3-1.9-1.4-2.6-1.5-5.5-.7zM120.6 263.6c-3.2 3.1-.5 8.4 4.2 8.4 4.2 0 6.3-6.8 2.8-9.2-1.9-1.3-5.4-.9-7 .8zM206.7 267.8c-2.3 2.5-2.1 4.7.5 7.2 2.5 2.3 3.6 2.4 5.9.7 2.8-2.1 3.2-5.4 1-7.6-2.6-2.6-5.3-2.7-7.4-.3zM149 277c-1.1 1.1-2 2.7-2 3.5 0 2.1 3.6 5.5 5.8 5.5 2.4 0 5.2-3.1 5.2-5.7 0-2.3-3-5.3-5.3-5.3-.9 0-2.6.9-3.7 2zM77 283c-1.9 1.9-1.8 4 .3 6.7 1.4 1.9 6.2 1.6 8-.5 2.2-2.4 2.1-3.8-.3-6.2-2.5-2.5-5.5-2.5-8 0zM238.6 285.6c-1.9 1.8-2 3.8-.6 6.5 1.1 1.9 4.3 2.5 7.4 1.3 1.9-.7 2.2-6.4.4-8.2-1.7-1.7-5.4-1.5-7.2.4zM187.2 289.1c-2.9 4.6 2.7 9.5 7.4 6.4 2.6-1.7 3.2-5.3 1.2-7.3s-7.2-1.5-8.6.9zM112 291.5c-2 2.1-2.2 2.8-1.2 5 1.5 3.3 5.7 4.3 8.2 2 2.6-2.4 2.5-6-.2-7.9-3-2.2-4.1-2-6.8.9zM146.5 336.1c-2.7.5-5.8 1.4-6.7 1.9-1 .6-2.3 1-2.9 1-.6 0-4.1 2-7.9 4.5-18.5 11.9-23.9 11.9-50 .2-8.3-3.7-19.7-6.7-25.3-6.7-8.2 0-18.2 5-23.2 11.5-3 4-3.1 4.7-.7 6.8 2.8 2.6 4.7 2.1 9.7-2.7 4.7-4.4 9.8-6.6 15.2-6.6 3.5 0 15.3 3.7 23.4 7.3 24.9 11.1 36.1 11 52.9-.3 7-4.7 11.2-6.6 18-8 6.4-1.4 16 .2 28.4 4.6 20.8 7.4 24.7 8.4 34.1 8.4 10.9 0 12.3-.4 28.1-8.1 7.2-3.5 13.5-5.9 15.4-5.9 6.7 0 17.2 4.1 27.7 10.7 2.9 1.8 5.8 3.3 6.5 3.3 2.1-.1 4.8-2.6 4.8-4.4 0-2.2-1.3-3.5-8-7.7-18.4-11.4-33.2-13.7-45.5-6.9-1.6.9-5 2.8-7.5 4.2-7.5 4.1-13.8 5.8-21.9 5.8-6.4 0-9.6-.7-20.6-4.6-16-5.6-18.1-6.2-27.5-7.9-8.6-1.6-9.6-1.6-16.5-.4zM40.2 377.2c-4.9 2.4-8.2 6.3-10.8 12.7-1.6 4.2-1.6 4.6.1 9.8 2.1 6.2 7.1 11.3 13.1 13.4 3.2 1.2 24 1.4 118.4 1.4 107.1 0 114.8-.1 119.1-1.8 7.6-2.9 13.9-11.4 13.9-18.7-.1-5.1-6.3-13.8-12-16.7-4.1-2.1-5.6-2.3-18.5-2l-14 .2-4.7 9.6c-5.1 10.4-8.7 14.9-11.6 14.9-1 0-6.3-2.8-11.8-6.3-11.7-7.4-18.6-10.9-27.2-13.7-14.4-4.7-18.8-5-86.2-4.9-62.3 0-63.6 0-67.8 2.1zM33.7 425.7c-.4.3-.7 7-.7 14.8v14.2l3.8 5.3c4.5 6.4 9.8 10.3 17.4 13 5.6 2 8.2 2 107.3 2H263l6.7-2.7c4.6-1.8 8.3-4.2 11.4-7.4 7.5-7.4 8.3-9.5 8.3-23.9.1-6.9-.2-13.3-.6-14.3-.7-1.6-7.7-1.7-127.6-1.7-69.8 0-127.2.3-127.5.7zm245.8 18c0 8.7-.2 9.3-3 12.8-1.6 2-5 4.9-7.5 6.4l-4.5 2.6H161.4c-112.4 0-104.5.4-112.5-5.7-5.2-3.9-6.9-8.2-6.9-17 0-4.1.3-7.8.7-8.1.3-.4 53.8-.6 118.7-.5l118.1.3v9.2z"/></svg>